<?xml version="1.0" encoding="UTF-8"?>
<svg width="103px" height="60px" viewBox="0 0 103 60" version="1.1" xmlns="http://www.w3.org/2000/svg" xmlns:xlink="http://www.w3.org/1999/xlink">
    <!-- Generator: Sketch 44.1 (41455) - http://www.bohemiancoding.com/sketch -->
    <title>Page 1 Copy</title>
    <desc>Created with Sketch.</desc>
    <defs>
        <polygon id="path-1" points="0.00051452597 59.6979044 102.905194 59.6979044 102.905194 -0.000257352941 51.4528542 -0.000257352941 0.00051452597 -0.000257352941"></polygon>
    </defs>
    <g id="Page-1" stroke="none" stroke-width="1" fill="none" fill-rule="evenodd">
        <g id="首页" transform="translate(-241.000000, -339.000000)">
            <g id="Page-1-Copy" transform="translate(241.000000, 339.000000)">
                <mask id="mask-2" fill="white">
                    <use xlink:href="#path-1"></use>
                </mask>
                <g id="Clip-2"></g>
                <path d="M41.0591724,31.0519485 L45.1496538,31.0519485 L45.1496538,23.1820956 L41.0591724,23.1820956 L41.0591724,31.0519485 Z M34.8308355,31.0519485 L38.921317,31.0519485 L38.921317,23.1820956 L34.8308355,23.1820956 L34.8308355,31.0519485 Z M47.2875093,31.0622426 L47.2875093,31.0519485 L47.2875093,23.1795221 L47.2875093,23.0662868 L47.2875093,21.9442279 L41.0591724,21.9442279 L41.0591724,21.3291544 L38.921317,21.3291544 L38.921317,21.9442279 L32.6929801,21.9442279 L32.6929801,23.0662868 L32.6929801,23.1795221 L32.6929801,31.0519485 L32.6929801,31.2063603 L32.6929801,32.2846691 L38.921317,32.2846691 L38.921317,33.5354044 L41.0591724,33.5354044 L41.0591724,32.2846691 L46.0706553,32.2846691 C46.7421117,32.2820956 47.2875093,31.7365074 47.2875093,31.0622426 L47.2875093,31.0622426 Z" id="Fill-1" fill="#FFFFFF" mask="url(#mask-2)"></path>
                <path d="M29.6341232,31.0594118 L29.6341232,26.1928676 C29.6264053,25.52375 29.0835804,24.9833088 28.412124,24.9833088 L27.6377625,24.9833088 L19.8118225,24.9833088 L19.0323156,24.9833088 C18.3608592,24.9858824 17.8154617,25.5340441 17.8154617,26.2057353 L17.8154617,31.0594118 L19.8118225,31.0594118 L19.8118225,26.2005882 L27.6377625,26.2005882 L27.6377625,31.0594118 L29.6341232,31.0594118 Z" id="Fill-3" fill="#FFFFFF" mask="url(#mask-2)"></path>
                <path d="M29.8903572,22.4355147 L28.8124253,22.4355147 L29.0722609,21.2156618 L26.9112518,21.2156618 L26.6514162,22.4355147 L26.2166417,22.4355147 L26.2166417,22.4380882 L24.7579606,22.4380882 L24.7579606,21.2130882 L22.7615999,21.2130882 L22.7615999,22.4380882 L21.2334577,22.4380882 L21.099681,22.4380882 L20.7575212,22.4380882 L20.5002582,21.2156618 L18.3392491,21.2156618 L18.5965121,22.4380882 L18.3392491,22.4380882 L17.5417339,22.4380882 C16.8754228,22.4483824 16.3403157,22.9913971 16.3403157,23.6579412 L16.3403157,24.8391912 L17.8170053,24.8391912 L18.3392491,24.8391912 L18.3392491,23.6553676 L21.099681,23.6553676 L21.2334577,23.6553676 L22.7615999,23.6553676 L24.7579606,23.6553676 L26.2809575,23.6553676 L26.2809575,23.6553676 L26.3941532,23.6553676 L26.3941532,23.6553676 L28.5525896,23.6553676 L28.5551623,23.6553676 L29.0722609,23.6553676 L29.0722609,24.8391912 L29.6356668,24.8391912 L31.0686216,24.8391912 L31.0686216,23.6553676 L31.0686216,23.6502206 C31.066049,22.9913971 30.5438051,22.4586765 29.8903572,22.4355147" id="Fill-4" fill="#FFFFFF" mask="url(#mask-2)"></path>
                <path d="M26.0062006,29.3104412 L24.2825386,29.3104412 C24.5809637,28.2372794 24.5166479,27.3905882 24.5166479,27.3905882 L22.5794577,27.3905882 L22.5794577,27.5810294 C22.5820303,27.6016176 22.5820303,27.6247794 22.5794577,27.6479412 L22.5794577,27.7354412 C22.5614492,28.4174265 22.3710746,29.9795588 21.0847597,31.0604412 C20.2306466,31.7784559 19.0986895,32.1722059 18.1442438,32.2365441 L17.3776001,32.27 L16.5131965,32.2828676 L16.5131965,33.4821324 C17.3904633,33.5747794 20.5933874,33.7394853 22.486843,32.1541912 C23.2329056,31.5288235 23.7062695,30.7953676 24.0098399,30.0927941 L24.0098399,32.3188971 C24.0124125,32.9905882 24.55781,33.5361765 25.231839,33.5361765 L25.489102,33.5361765 L26.0062006,33.5361765 L31.0691362,33.5361765 L31.0691362,32.3188971 L26.0062006,32.3188971 L26.0062006,29.3104412 Z" id="Fill-5" fill="#FFFFFF" mask="url(#mask-2)"></path>
                <polygon id="Fill-6" fill="#FFFFFF" mask="url(#mask-2)" points="0.00257262985 33.5019485 1.56673158 33.5019485 1.56673158 26.3346691 0.00257262985 26.3346691"></polygon>
                <path d="M4.42029261,25.2313971 L4.42029261,25.2313971 C4.41771998,24.5597059 3.87232245,24.0141176 3.19829343,24.0141176 L0.00308715582,24.0141176 L0.00308715582,25.2313971 L2.42650447,25.2313971 L2.43164973,33.5027206 L4.4280105,33.5027206 L4.42029261,25.5659559 L4.42029261,25.2313971 Z" id="Fill-7" fill="#FFFFFF" mask="url(#mask-2)"></path>
                <path d="M12.4420097,29.2826471 L14.4383705,29.2826471 L14.4383705,22.5657353 L14.4383705,22.5631618 C14.4357979,21.8914706 13.892973,21.3484559 13.2215166,21.3458824 L7.28131426,21.3458824 L5.2849535,21.3458824 L5.2849535,29.2826471 L7.28131426,29.2826471 L7.28131426,22.5657353 L12.4420097,22.5657353 L12.4420097,28.0550735 L10.5897162,28.0550735 L10.5897162,24.0146324 L8.64738071,24.0146324 L8.64738071,27.6844853 C8.64738071,27.6844853 8.63709019,28.2995588 8.47244188,28.8451471 C8.29750305,29.4241912 7.98621484,29.9517647 7.92961698,30.0547059 C6.74106199,32.2730882 4.58005292,33.5006618 4.58005292,33.5006618 L7.44081731,33.5006618 C7.44081731,33.5006618 9.49377593,32.0208824 10.4482216,28.9223529 L10.4482216,32.2833824 C10.4507942,32.9550735 10.9961918,33.5006618 11.6676482,33.5006618 L12.4420097,33.5006618 L14.7290777,33.5006618 L14.7290777,32.2833824 L12.4420097,32.2833824 L12.4420097,29.2826471 Z" id="Fill-8" fill="#FFFFFF" mask="url(#mask-2)"></path>
                <path d="M4.42029261,22.5649632 L4.42029261,22.5649632 C4.41771998,21.8906985 3.87232245,21.3451103 3.19829343,21.3451103 L0.00051452597,21.3451103 L0.00051452597,22.9123897 L4.42029261,22.9123897 L4.42029261,22.5649632 Z" id="Fill-9" fill="#FFFFFF" mask="url(#mask-2)"></path>
                <polygon id="Fill-10" fill="#FFFFFF" mask="url(#mask-2)" points="60.809509 31.4554779 60.8326627 31.4554779 60.8326627 29.1212868 59.5978003 29.1212868 59.5978003 30.2227574 57.2669977 30.2227574 57.2669977 27.9940809 60.5419555 27.9940809 60.5419555 26.7587868 57.2669977 26.7587868 57.2669977 24.5352574 60.5419555 24.5352574 60.5419555 23.2999632 51.8567571 23.2999632 51.8567571 24.5352574 55.1291423 24.5352574 55.1291423 26.7587868 51.8567571 26.7587868 51.8567571 27.9940809 55.1291423 27.9940809 55.1291423 30.2227574 51.5892036 30.2227574 51.5892036 31.4554779 59.5978003 31.4554779"></polygon>
                <path d="M50.938071,32.2846691 L61.4755629,32.2846691 L61.4755629,22.5644485 L50.938071,22.5644485 L50.938071,32.2846691 Z M62.2705055,33.5199632 C62.9445345,33.5173897 63.489932,32.9718015 63.489932,32.2975368 L63.489932,21.3291544 L61.4755629,21.3291544 L50.938071,21.3291544 L48.9134113,21.3291544 L48.9134113,22.5644485 L48.9134113,32.2846691 L48.9134113,32.7762132 L48.9134113,33.5199632 L62.2705055,33.5199632 Z" id="Fill-11" fill="#FFFFFF" mask="url(#mask-2)"></path>
                <polygon id="Fill-12" fill="#FFFFFF" mask="url(#mask-2)" points="102.898762 9.42452206 102.898762 25.0020956 87.3292065 25.0020956 87.3292065 9.42452206 79.77082 17.6315074 79.77082 27.6296691 90.182253 27.6296691 102.90648 25.0072426 102.90648 9.42452206"></polygon>
                <polygon id="Fill-13" fill="#FFFFFF" mask="url(#mask-2)" points="87.3279202 25.0015809 102.897476 25.0015809 102.897476 9.42400735 87.3279202 9.42400735"></polygon>
                <polygon id="Fill-14" fill="#FFFFFF" mask="url(#mask-2)" points="67.0249827 0 67.0249827 12.4996324 58.7977125 12.4996324 58.7977125 12.5022059 65.465969 17.4099265 70.0606859 17.4099265 70.0606859 10.6930147 67.0275553 0"></polygon>
                <polygon id="Fill-15" fill="#FFFFFF" mask="url(#mask-2)" points="58.7974552 12.499375 67.0247255 12.499375 67.0247255 -0.000257352941 58.7974552 -0.000257352941"></polygon>
                <polygon id="Fill-16" fill="#FFFFFF" mask="url(#mask-2)" points="78.8557356 44.6471324 71.4336985 44.6471324 70.5950212 49.9614706 80.3221346 49.9614706"></polygon>
                <polygon id="Fill-17" fill="#FFFFFF" mask="url(#mask-2)" points="70.5950212 49.9627574 70.5950212 49.9627574 70.5950212 59.6984191 80.3221346 59.6984191 80.3247072 59.6984191 80.3247072 49.9627574 80.3221346 49.9627574"></polygon>
                <polygon id="Fill-18" fill="#FFFFFF" mask="url(#mask-2)" points="46.1401163 41.5987868 55.8723751 41.5987868 55.8723751 51.3293015 65.9905283 43.2998897 65.9905283 37.5660662 61.9669352 37.5660662"></polygon>
                <polygon id="Fill-19" fill="#FFFFFF" mask="url(#mask-2)" points="46.1401163 41.5987868 46.1401163 51.331875 46.1401163 51.3344485 55.8723751 51.3344485 55.8723751 51.3293015 55.8723751 41.5987868"></polygon>
                <path d="M90.053107,45.1988971 C89.1861308,41.7580882 91.2751062,38.2658088 94.7147123,37.3985294 C95.7617727,37.1334559 96.8139783,37.1463235 97.7967229,37.3856618 L97.7967229,37.3830882 L84.9773083,34.5367647 C82.8831876,34.0735294 81.4193612,36.5647059 82.8445982,38.1705882 L91.7047354,48.1481618 L91.7124533,48.1352941 C90.9329464,47.3452206 90.3438142,46.3518382 90.053107,45.1988971" id="Fill-20" fill="#FFFFFF" mask="url(#mask-2)"></path>
                <path d="M97.7962083,37.3864338 C96.8134637,37.1470956 95.7612581,37.1342279 94.7141978,37.3967279 C91.2745917,38.2640074 89.1856162,41.7562868 90.0525925,45.1996691 C90.3458723,46.3500368 90.9324319,47.3459926 91.7119387,48.1334926 C93.2555167,49.7007721 95.5657383,50.4368015 97.8502336,49.8603309 C101.292412,48.9930515 103.378815,45.5007721 102.511839,42.0573897 C101.909843,39.6665809 100.036969,37.9320221 97.7962083,37.3864338" id="Fill-21" fill="#FFFFFF" mask="url(#mask-2)"></path>
            </g>
        </g>
    </g>
</svg>